<svg width="478" height="61" viewBox="0 0 478 61" fill="none" xmlns="http://www.w3.org/2000/svg">
<rect width="478" height="61" rx="10" fill="#FDB815"/>
<path d="M207.519 39V25H211.399V35.6H218.179V39H207.519ZM224.948 39.26C221.488 39.26 218.988 36.72 218.988 33.64V33.6C218.988 30.52 221.508 27.94 224.988 27.94C228.448 27.94 230.948 30.48 230.948 33.56V33.6C230.948 36.68 228.428 39.26 224.948 39.26ZM224.988 36.04C226.368 36.04 227.248 34.94 227.248 33.64V33.6C227.248 32.28 226.288 31.16 224.948 31.16C223.568 31.16 222.688 32.26 222.688 33.56V33.6C222.688 34.92 223.648 36.04 224.988 36.04ZM237.873 42.24C235.773 42.24 234.013 41.8 232.453 41L233.673 38.48C234.833 39.12 235.993 39.5 237.453 39.5C239.353 39.5 240.293 38.56 240.293 36.84V36.42C239.533 37.3 238.533 38.04 236.953 38.04C234.293 38.04 232.153 36.12 232.153 33.02V32.98C232.153 29.86 234.333 27.94 236.833 27.94C238.453 27.94 239.413 28.6 240.233 29.46V28.18H244.033V36.4C244.033 38.38 243.593 39.76 242.633 40.72C241.653 41.7 240.133 42.24 237.873 42.24ZM238.093 35.12C239.373 35.12 240.293 34.22 240.293 33.02V32.98C240.293 31.78 239.373 30.9 238.093 30.9C236.793 30.9 235.873 31.8 235.873 33V33.04C235.873 34.24 236.793 35.12 238.093 35.12ZM246.069 27.2V24.4H250.029V27.2H246.069ZM246.149 39V28.18H249.949V39H246.149ZM252.065 39V28.18H255.865V29.7C256.565 28.8 257.565 27.94 259.105 27.94C261.405 27.94 262.785 29.46 262.785 31.92V39H258.985V33.14C258.985 31.96 258.365 31.32 257.465 31.32C256.545 31.32 255.865 31.96 255.865 33.14V39H252.065Z" fill="white"/>
</svg>
